<svg xmlns="http://www.w3.org/2000/svg" width="512" height="512" fill="none"><path fill="#B9B9B9" d="M154.973 199.209H143.18l8.381-17.15h11.793l-8.381 17.15ZM44.996 234.59H73.05c4.586 0 6.909-2.113 6.968-6.343v-22.783c0-1.726-.506-3.201-1.519-4.422-1.013-1.22-2.83-1.832-5.449-1.832H44.996v35.38Zm-11.793 8.577v-43.71l-4.246-8.824h44.807c4.825 0 8.533.596 11.123 1.787 2.592 1.192 4.392 2.964 5.406 5.316 1.012 2.354 1.519 5.286 1.519 8.8v20.639c0 3.573-.492 6.537-1.474 8.89-.983 2.353-2.77 4.124-5.361 5.315-2.59 1.193-6.33 1.787-11.213 1.787H33.203ZM159.365 234.59h-43.247v-14.206h33.414v-8.845h-33.414V199.21h17.795l4.191-8.577h-33.78v52.534h59.001l-3.96-8.577ZM173.652 243.167v-43.71l-4.246-8.824h16.933l20.192 40.546 20.906-40.546h12.061v52.534h-11.793v-33.325h-.983l-3.484 7.773-11.257 21.795h-10.812l-11.256-21.795-3.574-7.773h-.894v33.325h-11.793ZM253.785 243.167v-52.534h11.793v52.534h-11.793ZM294.79 223.065h25.463l-12.239-24.391h-.894l-12.33 24.391Zm-22.067 20.102 26.177-52.534h17.601l26.088 52.534H328.83l-5.271-11.347h-31.985l-5.807 11.347h-13.044ZM350.64 243.167v-43.71l-4.245-8.824h16.217l34.844 31.602v-31.602h11.793v52.534h-11.346l.017-5.288-34.593-31.253h-.894v36.541H350.64ZM436.23 234.59h28.054c4.586 0 6.909-2.113 6.969-6.343v-22.783c0-1.726-.507-3.201-1.519-4.422-1.013-1.22-2.829-1.832-5.45-1.832H436.23v35.38Zm-11.793 8.577v-43.71l-4.246-8.824h44.808c4.824 0 8.532.596 11.123 1.787 2.592 1.192 4.392 2.964 5.405 5.316 1.013 2.354 1.52 5.286 1.52 8.8v20.639c0 3.573-.491 6.537-1.475 8.89-.983 2.353-2.77 4.124-5.36 5.315-2.591 1.193-6.33 1.787-11.213 1.787h-40.562ZM365.93 326.485v-52.5h8.849v6.314h.522c.464-.928 1.119-1.914 1.964-2.958.845-1.06 1.989-1.964 3.43-2.709 1.442-.763 3.282-1.144 5.519-1.144 2.95 0 5.609.754 7.979 2.262 2.387 1.492 4.276 3.704 5.668 6.637 1.408 2.917 2.113 6.497 2.113 10.739 0 4.193-.688 7.756-2.063 10.689-1.376 2.933-3.249 5.17-5.618 6.712-2.37 1.541-5.055 2.311-8.054 2.311-2.188 0-4.002-.364-5.444-1.093-1.442-.729-2.602-1.608-3.48-2.635-.862-1.044-1.533-2.03-2.014-2.958h-.373v20.333h-8.998Zm8.824-33.409c0 2.47.348 4.632 1.044 6.488.713 1.856 1.732 3.306 3.058 4.35 1.342 1.028 2.966 1.542 4.872 1.542 1.989 0 3.654-.531 4.996-1.591 1.343-1.077 2.354-2.544 3.033-4.4.696-1.873 1.044-4.002 1.044-6.389 0-2.369-.34-4.474-1.019-6.314-.679-1.839-1.69-3.281-3.033-4.325-1.342-1.044-3.016-1.566-5.021-1.566-1.922 0-3.555.506-4.897 1.516-1.342 1.011-2.362 2.428-3.058 4.251-.679 1.823-1.019 3.969-1.019 6.438ZM322.18 326.485v-52.5h8.849v6.314h.522c.464-.928 1.119-1.914 1.964-2.958.845-1.06 1.989-1.964 3.43-2.709 1.442-.763 3.282-1.144 5.519-1.144 2.95 0 5.609.754 7.979 2.262 2.387 1.492 4.276 3.704 5.668 6.637 1.408 2.917 2.113 6.497 2.113 10.739 0 4.193-.688 7.756-2.063 10.689-1.376 2.933-3.249 5.17-5.618 6.712-2.37 1.541-5.055 2.311-8.054 2.311-2.188 0-4.002-.364-5.444-1.093-1.442-.729-2.602-1.608-3.48-2.635-.862-1.044-1.533-2.03-2.014-2.958h-.373v20.333h-8.998Zm8.824-33.409c0 2.47.348 4.632 1.044 6.488.713 1.856 1.732 3.306 3.058 4.35 1.342 1.028 2.966 1.542 4.872 1.542 1.989 0 3.654-.531 4.996-1.591 1.343-1.077 2.354-2.544 3.033-4.4.696-1.873 1.044-4.002 1.044-6.389 0-2.369-.34-4.474-1.019-6.314-.679-1.839-1.69-3.281-3.033-4.325-1.342-1.044-3.016-1.566-5.021-1.566-1.922 0-3.555.506-4.897 1.516-1.342 1.011-2.362 2.428-3.058 4.251-.679 1.823-1.019 3.969-1.019 6.438ZM278.461 312.167h-9.844l17.923-50.909h11.385l17.947 50.909h-9.844l-13.597-40.469h-.398l-13.572 40.469Zm.323-19.961h26.847v7.408h-26.847v-7.408ZM235.911 312.167v-38.182h8.998v38.182h-8.998Zm4.524-43.601c-1.425 0-2.651-.472-3.679-1.417-1.027-.961-1.541-2.113-1.541-3.455 0-1.359.514-2.511 1.541-3.455 1.028-.961 2.254-1.442 3.679-1.442 1.442 0 2.668.481 3.679 1.442 1.027.944 1.541 2.096 1.541 3.455 0 1.342-.514 2.494-1.541 3.455-1.011.945-2.237 1.417-3.679 1.417ZM202.252 289.795v22.372h-8.998v-38.182h8.601v6.488h.447c.879-2.137 2.279-3.836 4.201-5.096 1.939-1.259 4.334-1.889 7.184-1.889 2.635 0 4.93.564 6.886 1.691 1.972 1.127 3.496 2.759 4.574 4.897 1.093 2.137 1.632 4.731 1.615 7.78v24.311h-8.998v-22.919c0-2.552-.663-4.549-1.989-5.991-1.309-1.441-3.124-2.162-5.444-2.162-1.574 0-2.974.348-4.201 1.044-1.209.679-2.162 1.665-2.858 2.958-.68 1.293-1.02 2.859-1.02 4.698ZM175.005 312.167v-38.182h8.998v38.182h-8.998Zm4.524-43.601c-1.425 0-2.652-.472-3.679-1.417-1.028-.961-1.541-2.113-1.541-3.455 0-1.359.513-2.511 1.541-3.455 1.027-.961 2.254-1.442 3.679-1.442 1.442 0 2.668.481 3.679 1.442 1.027.944 1.541 2.096 1.541 3.455 0 1.342-.514 2.494-1.541 3.455-1.011.945-2.237 1.417-3.679 1.417ZM111.965 261.258h11.285l15.114 36.889h.597l15.113-36.889h11.286v50.909h-8.85v-34.975h-.472l-14.07 34.826h-6.612l-14.069-34.901h-.473v35.05h-8.849v-50.909Z"/></svg>