<svg xmlns="http://www.w3.org/2000/svg" width="512" height="512" fill="none"><path fill="#EE252C" d="M154.973 199.209H143.18l8.381-17.15h11.793z"/><path fill="#B9B9B9" d="M44.996 234.59H73.05q6.88.001 6.968-6.343v-22.783q0-2.59-1.519-4.422-1.52-1.831-5.449-1.832H44.996zm-11.793 8.577v-43.71l-4.246-8.824h44.807q7.238 0 11.123 1.787 3.887 1.788 5.406 5.316 1.519 3.53 1.519 8.8v20.639q0 5.36-1.474 8.89-1.474 3.529-5.361 5.315-3.887 1.788-11.213 1.787zM159.365 234.59h-43.247v-14.206h33.414v-8.845h-33.414V199.21h17.795l4.191-8.577h-33.78v52.534h59.001zM173.652 243.167v-43.71l-4.246-8.824h16.933l20.192 40.546 20.906-40.546h12.061v52.534h-11.793v-33.325h-.983l-3.484 7.773-11.257 21.795h-10.812l-11.256-21.795-3.574-7.773h-.894v33.325zM253.785 243.167v-52.534h11.793v52.534zM294.79 223.065h25.463l-12.239-24.391h-.894zm-22.067 20.102 26.177-52.534h17.601l26.088 52.534H328.83l-5.271-11.347h-31.985l-5.807 11.347zM350.64 243.167v-43.71l-4.245-8.824h16.217l34.844 31.602v-31.602h11.793v52.534h-11.346l.017-5.288-34.593-31.253h-.894v36.541zM436.23 234.59h28.054q6.879.001 6.969-6.343v-22.783q0-2.59-1.519-4.422t-5.45-1.832H436.23zm-11.793 8.577v-43.71l-4.246-8.824h44.808q7.236 0 11.123 1.787 3.887 1.788 5.405 5.316 1.52 3.53 1.52 8.8v20.639q0 5.36-1.475 8.89-1.475 3.529-5.36 5.315-3.888 1.788-11.213 1.787zM365.93 326.485v-52.5h8.849v6.314h.522q.696-1.392 1.964-2.958 1.268-1.59 3.43-2.709 2.163-1.144 5.519-1.144 4.425 0 7.979 2.262 3.58 2.238 5.668 6.637 2.113 4.376 2.113 10.739 0 6.29-2.063 10.689-2.064 4.4-5.618 6.712t-8.054 2.311q-3.281 0-5.444-1.093-2.163-1.094-3.48-2.635-1.293-1.566-2.014-2.958h-.373v20.333zm8.824-33.409q0 3.704 1.044 6.488 1.07 2.784 3.058 4.35 2.013 1.542 4.872 1.542 2.983 0 4.996-1.591 2.014-1.616 3.033-4.4 1.044-2.809 1.044-6.389 0-3.554-1.019-6.314-1.019-2.759-3.033-4.325-2.013-1.566-5.021-1.566-2.884 0-4.897 1.516t-3.058 4.251q-1.019 2.734-1.019 6.438M322.18 326.485v-52.5h8.849v6.314h.522q.696-1.392 1.964-2.958 1.268-1.59 3.43-2.709 2.163-1.144 5.519-1.144 4.425 0 7.979 2.262 3.58 2.238 5.668 6.637 2.113 4.376 2.113 10.739 0 6.29-2.063 10.689-2.064 4.4-5.618 6.712t-8.054 2.311q-3.281 0-5.444-1.093-2.163-1.094-3.48-2.635-1.293-1.566-2.014-2.958h-.373v20.333zm8.824-33.409q0 3.704 1.044 6.488 1.07 2.784 3.058 4.35 2.013 1.542 4.872 1.542 2.983 0 4.996-1.591 2.014-1.616 3.033-4.4 1.044-2.809 1.044-6.389 0-3.554-1.019-6.314-1.019-2.759-3.033-4.325-2.013-1.566-5.021-1.566-2.884 0-4.897 1.516t-3.058 4.251q-1.019 2.734-1.019 6.438M278.461 312.167h-9.844l17.923-50.909h11.385l17.947 50.909h-9.844l-13.597-40.469h-.398zm.323-19.961h26.847v7.408h-26.847zM235.911 312.167v-38.182h8.998v38.182zm4.524-43.601q-2.137 0-3.679-1.417-1.54-1.442-1.541-3.455 0-2.039 1.541-3.455 1.542-1.442 3.679-1.442 2.163 0 3.679 1.442 1.54 1.416 1.541 3.455 0 2.013-1.541 3.455-1.516 1.417-3.679 1.417M202.252 289.795v22.372h-8.998v-38.182h8.601v6.488h.447q1.318-3.206 4.201-5.096 2.909-1.889 7.184-1.889 3.952 0 6.886 1.691 2.958 1.69 4.574 4.897 1.64 3.206 1.615 7.78v24.311h-8.998v-22.919q0-3.828-1.989-5.991-1.964-2.162-5.444-2.162-2.36 0-4.201 1.044-1.814 1.019-2.858 2.958-1.02 1.94-1.02 4.698M175.005 312.167v-38.182h8.998v38.182zm4.524-43.601q-2.138 0-3.679-1.417-1.541-1.442-1.541-3.455 0-2.039 1.541-3.455 1.541-1.442 3.679-1.442 2.163 0 3.679 1.442 1.54 1.416 1.541 3.455 0 2.013-1.541 3.455-1.516 1.417-3.679 1.417M111.965 261.258h11.285l15.114 36.889h.597l15.113-36.889h11.286v50.909h-8.85v-34.975h-.472l-14.07 34.826h-6.612l-14.069-34.901h-.473v35.05h-8.849z"/></svg>