<svg width="512" height="512" viewBox="0 0 512 512" fill="none" xmlns="http://www.w3.org/2000/svg">
<path d="M154.973 199.209H143.18L151.561 182.059H163.354L154.973 199.209Z" fill="#EE252C"/>
<path d="M44.9964 234.59H73.0503C77.6358 234.59 79.9587 232.477 80.0184 228.247V205.464C80.0184 203.738 79.5119 202.263 78.4994 201.042C77.4863 199.822 75.6699 199.21 73.0503 199.21H44.9964V234.59ZM33.203 243.167V199.457L28.957 190.633H73.7643C78.5892 190.633 82.2973 191.229 84.8873 192.42C87.4792 193.612 89.2792 195.384 90.2929 197.736C91.3048 200.09 91.812 203.022 91.812 206.536V227.175C91.812 230.748 91.3205 233.712 90.3376 236.065C89.3546 238.418 87.5684 240.189 84.9766 241.38C82.3865 242.573 78.6477 243.167 73.7643 243.167H33.203Z" fill="#B9B9B9"/>
<path d="M159.365 234.59H116.118V220.384H149.532V211.539H116.118V199.21H133.913L138.104 190.633H104.324V243.167H163.325L159.365 234.59Z" fill="#B9B9B9"/>
<path d="M173.652 243.167V199.457L169.406 190.633H186.339L206.531 231.179L227.437 190.633H239.498V243.167H227.705V209.842H226.722L223.238 217.615L211.981 239.41H201.169L189.913 217.615L186.339 209.842H185.445V243.167H173.652Z" fill="#B9B9B9"/>
<path d="M253.785 243.167V190.633H265.578V243.167H253.785Z" fill="#B9B9B9"/>
<path d="M294.79 223.065H320.253L308.014 198.674H307.12L294.79 223.065ZM272.723 243.167L298.9 190.633H316.501L342.589 243.167H328.83L323.559 231.82H291.574L285.767 243.167H272.723Z" fill="#B9B9B9"/>
<path d="M350.64 243.167V199.457L346.395 190.633H362.612L397.456 222.235V190.633H409.249V243.167H397.903L397.92 237.879L363.327 206.626H362.433V243.167H350.64Z" fill="#B9B9B9"/>
<path d="M436.23 234.59H464.284C468.87 234.59 471.193 232.477 471.253 228.247V205.464C471.253 203.738 470.746 202.263 469.734 201.042C468.721 199.822 466.905 199.21 464.284 199.21H436.23V234.59ZM424.437 243.167V199.457L420.191 190.633H464.999C469.823 190.633 473.531 191.229 476.122 192.42C478.714 193.612 480.514 195.384 481.527 197.736C482.54 200.09 483.047 203.022 483.047 206.536V227.175C483.047 230.748 482.556 233.712 481.572 236.065C480.589 238.418 478.802 240.189 476.212 241.38C473.621 242.573 469.882 243.167 464.999 243.167H424.437Z" fill="#B9B9B9"/>
<path d="M365.93 326.485V273.985H374.779V280.299H375.301C375.765 279.371 376.42 278.385 377.265 277.341C378.11 276.281 379.254 275.377 380.695 274.632C382.137 273.869 383.977 273.488 386.214 273.488C389.164 273.488 391.823 274.242 394.193 275.75C396.58 277.242 398.469 279.454 399.861 282.387C401.269 285.304 401.974 288.884 401.974 293.126C401.974 297.319 401.286 300.882 399.911 303.815C398.535 306.748 396.662 308.985 394.293 310.527C391.923 312.068 389.238 312.838 386.239 312.838C384.051 312.838 382.237 312.474 380.795 311.745C379.353 311.016 378.193 310.137 377.315 309.11C376.453 308.066 375.782 307.08 375.301 306.152H374.928V326.485H365.93ZM374.754 293.076C374.754 295.546 375.102 297.708 375.798 299.564C376.511 301.42 377.53 302.87 378.856 303.914C380.198 304.942 381.822 305.456 383.728 305.456C385.717 305.456 387.382 304.925 388.724 303.865C390.067 302.788 391.078 301.321 391.757 299.465C392.453 297.592 392.801 295.463 392.801 293.076C392.801 290.707 392.461 288.602 391.782 286.762C391.103 284.923 390.092 283.481 388.749 282.437C387.407 281.393 385.733 280.871 383.728 280.871C381.806 280.871 380.173 281.377 378.831 282.387C377.489 283.398 376.469 284.815 375.773 286.638C375.094 288.461 374.754 290.607 374.754 293.076Z" fill="#B9B9B9"/>
<path d="M322.18 326.485V273.985H331.029V280.299H331.551C332.015 279.371 332.67 278.385 333.515 277.341C334.36 276.281 335.504 275.377 336.945 274.632C338.387 273.869 340.227 273.488 342.464 273.488C345.414 273.488 348.073 274.242 350.443 275.75C352.83 277.242 354.719 279.454 356.111 282.387C357.519 285.304 358.224 288.884 358.224 293.126C358.224 297.319 357.536 300.882 356.161 303.815C354.785 306.748 352.912 308.985 350.543 310.527C348.173 312.068 345.488 312.838 342.489 312.838C340.301 312.838 338.487 312.474 337.045 311.745C335.603 311.016 334.443 310.137 333.565 309.11C332.703 308.066 332.032 307.08 331.551 306.152H331.178V326.485H322.18ZM331.004 293.076C331.004 295.546 331.352 297.708 332.048 299.564C332.761 301.42 333.78 302.87 335.106 303.914C336.448 304.942 338.072 305.456 339.978 305.456C341.967 305.456 343.632 304.925 344.974 303.865C346.317 302.788 347.328 301.321 348.007 299.465C348.703 297.592 349.051 295.463 349.051 293.076C349.051 290.707 348.711 288.602 348.032 286.762C347.353 284.923 346.342 283.481 344.999 282.437C343.657 281.393 341.983 280.871 339.978 280.871C338.056 280.871 336.423 281.377 335.081 282.387C333.739 283.398 332.719 284.815 332.023 286.638C331.344 288.461 331.004 290.607 331.004 293.076Z" fill="#B9B9B9"/>
<path d="M278.461 312.167H268.617L286.54 261.258H297.925L315.872 312.167H306.028L292.431 271.698H292.033L278.461 312.167ZM278.784 292.206H305.631V299.614H278.784V292.206Z" fill="#B9B9B9"/>
<path d="M235.911 312.167V273.985H244.909V312.167H235.911ZM240.435 268.566C239.01 268.566 237.784 268.094 236.756 267.149C235.729 266.188 235.215 265.036 235.215 263.694C235.215 262.335 235.729 261.183 236.756 260.239C237.784 259.278 239.01 258.797 240.435 258.797C241.877 258.797 243.103 259.278 244.114 260.239C245.141 261.183 245.655 262.335 245.655 263.694C245.655 265.036 245.141 266.188 244.114 267.149C243.103 268.094 241.877 268.566 240.435 268.566Z" fill="#B9B9B9"/>
<path d="M202.252 289.795V312.167H193.254V273.985H201.855V280.473H202.302C203.181 278.336 204.581 276.637 206.503 275.377C208.442 274.118 210.837 273.488 213.687 273.488C216.322 273.488 218.617 274.052 220.573 275.179C222.545 276.306 224.069 277.938 225.147 280.076C226.24 282.213 226.779 284.807 226.762 287.856V312.167H217.764V289.248C217.764 286.696 217.101 284.699 215.775 283.257C214.466 281.816 212.651 281.095 210.331 281.095C208.757 281.095 207.357 281.443 206.13 282.139C204.921 282.818 203.968 283.804 203.272 285.097C202.592 286.39 202.252 287.956 202.252 289.795Z" fill="#B9B9B9"/>
<path d="M175.005 312.167V273.985H184.003V312.167H175.005ZM179.529 268.566C178.104 268.566 176.877 268.094 175.85 267.149C174.822 266.188 174.309 265.036 174.309 263.694C174.309 262.335 174.822 261.183 175.85 260.239C176.877 259.278 178.104 258.797 179.529 258.797C180.971 258.797 182.197 259.278 183.208 260.239C184.235 261.183 184.749 262.335 184.749 263.694C184.749 265.036 184.235 266.188 183.208 267.149C182.197 268.094 180.971 268.566 179.529 268.566Z" fill="#B9B9B9"/>
<path d="M111.965 261.258H123.25L138.364 298.147H138.961L154.074 261.258H165.36V312.167H156.51V277.192H156.038L141.968 312.018H135.356L121.287 277.117H120.814V312.167H111.965V261.258Z" fill="#B9B9B9"/>
</svg>
